# xmcd
#
# Track frame offsets: 
#        150
#        15099
#        42810
#        60849
#        72058
#        82224
#        98199
#        112335
#        138999
#        154569
#        174174
#        188874
#
# Disc length: 2980 seconds
#
# Revision: 0
# Processed by: cddbd v1.5.2PL0 Copyright (c) Steve Scherf et al.
# Submitted via: ExactAudioCopyFreeDBPlugin 1.0
#
DISCID=8e0ba20c
DTITLE=Various Artist - Soul Train Live
DYEAR=2011
DGENRE=R&B
TTITLE0=LaBelle - Lady Marmalade
TTITLE1=Ike and Tina Turner - Proud Mary
TTITLE2=Bill Withers - Use Me
TTITLE3=James Brown - Super Bad (Pt1 and Pt2)
TTITLE4=Aretha Franklin and Smokey Robinson - Ooo Baby Baby
TTITLE5=The Isley Brothers - That Lady (Pt1)
TTITLE6=Al Green - Love and Happiness
TTITLE7=Tower of Power - What is Hip?
TTITLE8=Barry White - Can't Get Enough of Your Love, Babe
TTITLE9=Sly and the Family Stone - Dance to the Music and I Want to Take Y
TTITLE9=ou Higher
TTITLE10=Harold Melvin and the Blue Notes - Wake Up Everybody (Part 1)
TTITLE11=Stevie Wonder - My Cherie Amour and Sir Duke and I Wish and These T
TTITLE11=hree Words
EXTD=
EXTT0=
EXTT1=
EXTT2=
EXTT3=
EXTT4=
EXTT5=
EXTT6=
EXTT7=
EXTT8=
EXTT9=
EXTT10=
EXTT11=
PLAYORDER=
